<?xml version="1.0" standalone="no"?>
<!DOCTYPE svg PUBLIC "-//W3C//DTD SVG 20010904//EN"
 "http://www.w3.org/TR/2001/REC-SVG-20010904/DTD/svg10.dtd">
<svg version="1.0" xmlns="http://www.w3.org/2000/svg"
 width="260.000000pt" height="260.000000pt" viewBox="0 0 260.000000 260.000000"
 preserveAspectRatio="xMidYMid meet">
<metadata>
Created by potrace 1.14, written by Peter Selinger 2001-2017
</metadata>
<g transform="translate(0.000000,260.000000) scale(0.100000,-0.100000)"
fill="#000000" stroke="none">
<path d="M1882 1484 c-31 -22 -30 -69 3 -90 23 -15 27 -15 50 0 36 24 44 65
15 88 -27 22 -39 23 -68 2z"/>
<path d="M140 1451 c-6 -12 -10 -115 -10 -265 l0 -245 35 -7 c19 -3 46 -3 60
0 25 6 25 7 25 124 0 64 4 123 9 131 14 22 41 5 41 -26 0 -15 9 -41 20 -58 11
-16 20 -40 20 -51 0 -12 9 -32 19 -45 10 -14 21 -36 23 -49 3 -22 8 -25 42
-25 25 0 41 5 46 15 4 8 14 30 23 48 9 19 17 38 17 44 0 6 8 29 19 52 10 23
23 55 28 71 4 17 15 30 23 30 12 0 16 -23 18 -127 l3 -128 26 -6 c14 -4 41 -3
60 2 l35 9 -2 249 c0 164 -4 254 -12 263 -17 21 -111 17 -131 -5 -10 -10 -17
-23 -17 -28 0 -5 -9 -27 -20 -49 -11 -22 -20 -45 -20 -53 0 -8 -6 -26 -14 -40
-32 -63 -56 -120 -56 -136 0 -22 -30 -33 -41 -15 -5 8 -9 24 -9 35 0 12 -6 27
-14 33 -8 7 -17 28 -21 48 -3 20 -13 42 -21 50 -8 8 -14 23 -14 33 0 21 -49
121 -65 132 -5 4 -33 8 -62 8 -42 0 -54 -4 -63 -19z"/>
<path d="M1607 1434 c-4 -4 -7 -24 -7 -44 0 -39 -12 -55 -45 -62 -33 -6 -32
-53 2 -75 15 -9 31 -22 35 -28 4 -5 8 -62 8 -126 0 -113 1 -116 28 -142 24
-23 37 -27 85 -27 44 0 59 4 64 16 9 25 -10 68 -32 72 -35 6 -45 32 -45 116 0
90 7 108 41 110 16 1 27 10 33 27 12 36 2 59 -27 59 -32 0 -45 17 -49 65 -3
39 -4 40 -43 43 -23 2 -44 0 -48 -4z"/>
<path d="M867 1307 c-45 -26 -59 -64 -31 -84 22 -16 58 -10 96 17 36 26 61 25
95 -4 24 -20 25 -26 14 -40 -7 -9 -22 -16 -33 -16 -42 0 -164 -44 -190 -68
-35 -32 -37 -78 -5 -132 19 -33 28 -40 64 -46 23 -3 62 -3 85 0 24 4 54 6 68
5 14 -1 45 -2 70 -3 l45 -1 0 168 0 169 -33 29 c-31 27 -37 29 -120 29 -71 -1
-94 -5 -125 -23z m177 -223 c6 -21 1 -33 -20 -55 -37 -38 -85 -40 -108 -3 -24
35 -17 45 40 65 70 24 81 23 88 -7z"/>
<path d="M1247 1324 c-4 -4 -7 -92 -7 -195 l0 -187 30 -7 c17 -4 44 -4 60 0
l30 7 0 118 c0 155 5 168 67 172 l48 3 3 49 3 48 -48 -6 c-60 -8 -76 -8 -133
0 -25 3 -48 2 -53 -2z"/>
<path d="M1864 1317 c-2 -7 -3 -96 -2 -197 l3 -185 45 0 45 0 3 198 2 197 -45
0 c-28 0 -48 -5 -51 -13z"/>
<path d="M2057 1323 c-4 -3 -7 -91 -7 -194 0 -213 -2 -208 86 -194 l44 6 0
132 c0 73 4 138 9 145 13 20 82 26 105 9 18 -13 20 -29 23 -148 2 -128 3 -134
25 -142 12 -4 39 -5 60 -2 l38 7 0 131 c0 98 -4 139 -15 161 -8 15 -15 34 -15
41 0 8 -12 23 -26 34 -35 28 -142 29 -186 4 -28 -17 -30 -17 -39 0 -7 12 -22
17 -53 17 -23 0 -46 -3 -49 -7z"/>
</g>
</svg>
